<?xml version="1.0" encoding="UTF-8" standalone="no"?>
<svg
   xmlns:dc="http://purl.org/dc/elements/1.1/"
   xmlns:cc="http://creativecommons.org/ns#"
   xmlns:rdf="http://www.w3.org/1999/02/22-rdf-syntax-ns#"
   xmlns:svg="http://www.w3.org/2000/svg"
   xmlns="http://www.w3.org/2000/svg"
   xmlns:sodipodi="http://sodipodi.sourceforge.net/DTD/sodipodi-0.dtd"
   xmlns:inkscape="http://www.inkscape.org/namespaces/inkscape"
   width="793.700787402"
   height="1122.51968504"
   version="1.1"
   id="svg849"
   sodipodi:docname="rumba bd.svg"
   inkscape:version="0.92.4 (5da689c313, 2019-01-14)">
  <metadata
     id="metadata853">
    <rdf:RDF>
      <cc:Work
         rdf:about="">
        <dc:format>image/svg+xml</dc:format>
        <dc:type
           rdf:resource="http://purl.org/dc/dcmitype/StillImage" />
        <dc:title />
      </cc:Work>
    </rdf:RDF>
  </metadata>
  <sodipodi:namedview
     pagecolor="#ffffff"
     bordercolor="#666666"
     borderopacity="1"
     objecttolerance="10"
     gridtolerance="10"
     guidetolerance="10"
     inkscape:pageopacity="0"
     inkscape:pageshadow="2"
     inkscape:window-width="1920"
     inkscape:window-height="1057"
     id="namedview851"
     showgrid="false"
     inkscape:zoom="0.73049946"
     inkscape:cx="173.56348"
     inkscape:cy="561.25983"
     inkscape:window-x="-8"
     inkscape:window-y="-8"
     inkscape:window-maximized="1"
     inkscape:current-layer="g847" />
  <desc
     id="desc815">C:\Users\bjbsq\Google Drive\Makelangelo\rumba bd.dxf - scale = 1.000000, origin = (0.000000, 0.000000), method = manual</desc>
  <defs
     id="defs829">
    <marker
       id="DistanceX"
       orient="auto"
       refX="0.0"
       refY="0.0"
       style="overflow:visible">
      <path
         d="M 3,-3 L -3,3 M 0,-5 L  0,5"
         style="stroke:#000000; stroke-width:0.5"
         id="path817" />
    </marker>
    <pattern
       height="8"
       id="Hatch"
       patternUnits="userSpaceOnUse"
       width="8"
       x="0"
       y="0">
      <path
         d="M8 4 l-4,4"
         linecap="square"
         stroke="#000000"
         stroke-width="0.25"
         id="path820" />
      <path
         d="M6 2 l-4,4"
         linecap="square"
         stroke="#000000"
         stroke-width="0.25"
         id="path822" />
      <path
         d="M4 0 l-4,4"
         linecap="square"
         stroke="#000000"
         stroke-width="0.25"
         id="path824" />
    </pattern>
    <symbol
       id="*Model_Space" />
    <symbol
       id="*Paper_Space" />
  </defs>
  <g
     inkscape:groupmode="layer"
     inkscape:label="0"
     id="g847">
    <path
       d="M 113.38584,1007.9921 H 680.31497 V 724.52754 H 113.38584 Z"
       style="fill:none;stroke:#000000;stroke-linecap:round"
       id="path831"
       inkscape:connector-curvature="0" />
    <path
       d="M 127.55906,996.19142 H 666.14174 V 741.07336 H 127.55906 Z"
       style="fill:none;stroke:#000000;stroke-linecap:round"
       id="path833"
       inkscape:connector-curvature="0" />
    <path
       d="M 127.55906,862.01824 H 666.14174"
       style="fill:none;stroke:#000000;stroke-linecap:round"
       id="path835"
       inkscape:connector-curvature="0" />
    <path
       d="m 671.81103,996.19142 a 5.6692915,5.6692915 0 1 0 -11.33858,0 5.6692915,5.6692915 0 1 0 11.33858,0 z"
       style="fill:none;stroke:#000000;stroke-linecap:round"
       id="path837"
       inkscape:connector-curvature="0" />
    <path
       d="m 671.81103,862.01824 a 5.6692915,5.6692915 0 1 0 -11.33858,0 5.6692915,5.6692915 0 1 0 11.33858,0 z"
       style="fill:none;stroke:#000000;stroke-linecap:round"
       id="path839"
       inkscape:connector-curvature="0" />
    <path
       d="m 133.22836,996.19142 a 5.669295,5.669295 0 1 0 -11.33859,0 5.669295,5.669295 0 1 0 11.33859,0 z"
       style="fill:none;stroke:#000000;stroke-linecap:round"
       id="path841"
       inkscape:connector-curvature="0" />
    <path
       d="m 133.22836,741.66431 a 5.669295,5.669295 0 1 0 -11.33859,0 5.669295,5.669295 0 1 0 11.33859,0 z"
       style="fill:none;stroke:#000000;stroke-linecap:round"
       id="path843"
       inkscape:connector-curvature="0" />
    <path
       d="M 396.8504,741.07336 V 996.19142"
       style="fill:none;stroke:#000000;stroke-linecap:round"
       id="path845"
       inkscape:connector-curvature="0" />
    <path
       id="path844"
       style="fill:none;stroke:#000000;stroke-linecap:round"
       d="M 113.38584,697.99212 H 680.31497 V 414.52754 H 113.38584 Z"
       inkscape:connector-curvature="0" />
    <path
       id="path846"
       style="fill:none;stroke:#000000;stroke-linecap:round"
       d="M 127.55906,686.19142 H 666.14175 V 431.07336 H 127.55906 Z"
       inkscape:connector-curvature="0" />
    <path
       id="path848"
       style="fill:none;stroke:#000000;stroke-linecap:round"
       d="M 127.55906,552.01824 H 666.14175"
       inkscape:connector-curvature="0" />
    <path
       id="path850"
       style="fill:none;stroke:#000000;stroke-linecap:round"
       d="m 671.81104,686.19142 a 5.669295,5.669295 0 1 0 -11.33859,0 5.669295,5.669295 0 1 0 11.33859,0 z"
       inkscape:connector-curvature="0" />
    <path
       id="path852"
       style="fill:none;stroke:#000000;stroke-linecap:round"
       d="m 671.81104,552.01824 a 5.669295,5.669295 0 1 0 -11.33859,0 5.669295,5.669295 0 1 0 11.33859,0 z"
       inkscape:connector-curvature="0" />
    <path
       id="path854"
       style="fill:none;stroke:#000000;stroke-linecap:round"
       d="m 133.22836,686.19142 a 5.669295,5.669295 0 1 0 -11.33859,0 5.669295,5.669295 0 1 0 11.33859,0 z"
       inkscape:connector-curvature="0" />
    <path
       id="path856"
       style="fill:none;stroke:#000000;stroke-linecap:round"
       d="m 133.22836,431.66431 a 5.669295,5.669295 0 1 0 -11.33859,0 5.669295,5.669295 0 1 0 11.33859,0 z"
       inkscape:connector-curvature="0" />
    <path
       id="path858"
       style="fill:none;stroke:#000000;stroke-linecap:round"
       d="M 396.85041,431.07336 V 686.19142"
       inkscape:connector-curvature="0" />
    <path
       inkscape:connector-curvature="0"
       d="M 113.38584,397.99212 H 680.31497 V 114.52754 H 113.38584 Z"
       style="fill:none;stroke:#000000;stroke-linecap:round"
       id="path860" />
    <path
       inkscape:connector-curvature="0"
       d="M 127.55906,386.19142 H 666.14175 V 131.07336 H 127.55906 Z"
       style="fill:none;stroke:#000000;stroke-linecap:round"
       id="path862" />
    <path
       inkscape:connector-curvature="0"
       d="M 127.55906,252.01824 H 666.14175"
       style="fill:none;stroke:#000000;stroke-linecap:round"
       id="path864" />
    <path
       inkscape:connector-curvature="0"
       d="m 671.81104,386.19142 a 5.669295,5.669295 0 1 0 -11.33859,0 5.669295,5.669295 0 1 0 11.33859,0 z"
       style="fill:none;stroke:#000000;stroke-linecap:round"
       id="path866" />
    <path
       inkscape:connector-curvature="0"
       d="m 671.81104,252.01824 a 5.669295,5.669295 0 1 0 -11.33859,0 5.669295,5.669295 0 1 0 11.33859,0 z"
       style="fill:none;stroke:#000000;stroke-linecap:round"
       id="path868" />
    <path
       inkscape:connector-curvature="0"
       d="m 133.22836,386.19142 a 5.669295,5.669295 0 1 0 -11.33859,0 5.669295,5.669295 0 1 0 11.33859,0 z"
       style="fill:none;stroke:#000000;stroke-linecap:round"
       id="path870" />
    <path
       inkscape:connector-curvature="0"
       d="m 133.22836,131.66431 a 5.669295,5.669295 0 1 0 -11.33859,0 5.669295,5.669295 0 1 0 11.33859,0 z"
       style="fill:none;stroke:#000000;stroke-linecap:round"
       id="path872" />
    <path
       inkscape:connector-curvature="0"
       d="M 396.85041,131.07336 V 386.19142"
       style="fill:none;stroke:#000000;stroke-linecap:round"
       id="path874" />
  </g>
</svg>
